<svg width="36" height="38" viewBox="0 0 36 38" fill="none" xmlns="http://www.w3.org/2000/svg">
<path d="M31.3788 12.8555H3.15889C2.46219 12.8555 1.89746 13.4202 1.89746 14.1169V17.5054H32.6402V14.1169C32.6402 13.4202 32.0755 12.8555 31.3788 12.8555Z" fill="#FFB125"/>
<path d="M21.1331 5.85005L18.5776 31.7214C18.5133 32.3712 17.9345 32.846 17.2846 32.7818L4.33582 31.5027C3.68595 31.4385 3.21114 30.8597 3.27535 30.2098L5.83093 4.3385C5.89514 3.68864 6.47399 3.21382 7.12385 3.27803L20.0727 4.55713C20.7225 4.62134 21.1974 5.20018 21.1331 5.85005Z" fill="#53B175"/>
<path d="M20.0726 4.55713L7.12375 3.27803C6.47389 3.21382 5.89497 3.68864 5.83083 4.3385L5.60156 6.65961C5.79579 6.56094 6.01905 6.51374 6.252 6.53676L19.2008 7.81585C19.8507 7.88006 20.3255 8.45891 20.2613 9.10877L17.935 32.659C18.2828 32.4823 18.5363 32.1383 18.5775 31.7214L21.1331 5.85012C21.1972 5.20018 20.7224 4.62134 20.0726 4.55713Z" fill="#4CA66C"/>
<path d="M7.20383 8.00694L5.33945 26.8807C5.31273 27.1509 5.44 27.4141 5.67035 27.5577C6.30523 27.9535 6.79677 28.5473 7.06694 29.2444C7.16401 29.495 7.39603 29.6678 7.66337 29.6942L14.376 30.3573C14.6434 30.3837 14.9047 30.2597 15.0489 30.0329C15.4503 29.4021 16.0485 28.916 16.7486 28.652C17.0026 28.5563 17.1789 28.323 17.2055 28.0529L19.0699 9.17911C19.0966 8.90894 18.9693 8.64566 18.739 8.5021C18.1041 8.10634 17.6126 7.5125 17.3424 6.81537C17.2453 6.56482 17.0133 6.39202 16.746 6.3656L10.0333 5.70249C9.76593 5.67606 9.50466 5.80014 9.36039 6.02688C8.95905 6.6577 8.3608 7.14381 7.66077 7.40775C7.40674 7.50353 7.23047 7.73677 7.20383 8.00694Z" fill="#53B175"/>
<path d="M18.7389 8.5021C18.104 8.10634 17.6125 7.5125 17.3423 6.81537C17.2452 6.56482 17.0132 6.39202 16.7459 6.3656L10.0333 5.70249C9.76585 5.67606 9.50459 5.80014 9.36031 6.02688C8.95897 6.6577 8.36073 7.14381 7.66069 7.40775C7.40667 7.50353 7.23047 7.73685 7.20376 8.00694L7.13281 8.72543L15.8305 9.55779C16.0979 9.58422 16.3299 9.75702 16.4269 10.0076C16.6971 10.7047 17.1886 11.2985 17.8235 11.6943C18.0539 11.8379 18.1811 12.1012 18.1544 12.3713L16.5375 28.7404C16.6068 28.7089 16.677 28.6791 16.7486 28.6521C17.0026 28.5563 17.1789 28.323 17.2055 28.0529L19.0699 9.17911C19.0965 8.90902 18.9693 8.64573 18.7389 8.5021Z" fill="#4CA66C"/>
<path d="M32.1128 9.70454L17.4727 31.1876C17.1049 31.7273 16.3693 31.8665 15.8297 31.4988L5.07721 24.1713C4.53753 23.8035 4.39824 23.068 4.766 22.5283L19.4061 1.04523C19.7739 0.505544 20.5094 0.366262 21.0491 0.734013L31.8016 8.06153C32.3412 8.42928 32.4805 9.16486 32.1128 9.70454Z" fill="#53B175"/>
<path d="M31.8012 8.06134L21.0487 0.73375C20.509 0.365998 19.7734 0.505353 19.4056 1.04496L18.1534 2.88263C18.2621 2.91666 18.3677 2.96668 18.4667 3.03408L29.2192 10.3616C29.7589 10.7293 29.8981 11.4649 29.5304 12.0046L16.1426 31.6501C16.6264 31.8014 17.172 31.628 17.4723 31.1873L32.1124 9.70428C32.4801 9.16467 32.3408 8.42909 31.8012 8.06134Z" fill="#4CA66C"/>
<path d="M18.8523 4.923L8.172 20.5954C8.0191 20.8198 8.00463 21.1118 8.13797 21.3482C8.50558 21.9998 8.65246 22.7566 8.55553 23.4979C8.52071 23.7643 8.64146 24.0272 8.86348 24.1785L14.4375 27.9771C14.6595 28.1284 14.9484 28.1447 15.1836 28.0148C15.8381 27.6534 16.5962 27.5134 17.337 27.6172C17.6059 27.6549 17.8724 27.5346 18.0253 27.3102L28.7056 11.6378C28.8585 11.4135 28.873 11.1214 28.7396 10.885C28.372 10.2334 28.2252 9.4766 28.3221 8.73531C28.3569 8.46891 28.2362 8.20605 28.0141 8.05468L22.4401 4.25613C22.2181 4.10483 21.9292 4.08854 21.694 4.21841C21.0395 4.57979 20.2814 4.7198 19.5406 4.61599C19.2717 4.57834 19.0052 4.69866 18.8523 4.923Z" fill="#53B175"/>
<path d="M28.7402 10.885C28.3726 10.2334 28.2257 9.47668 28.3226 8.73531C28.3574 8.46891 28.2367 8.20605 28.0147 8.05468L22.4406 4.25613C22.2186 4.10483 21.9297 4.08854 21.6945 4.21841C21.0401 4.57979 20.282 4.7198 19.5411 4.61599C19.2722 4.57834 19.0058 4.69866 18.8529 4.923L18.4077 5.5762L25.374 10.272C25.596 10.4233 25.7169 10.6861 25.682 10.9526C25.585 11.694 25.7319 12.4507 26.0995 13.1023C26.2329 13.3387 26.2184 13.6307 26.0655 13.8551L16.707 27.5878C16.9168 27.5787 17.1279 27.5878 17.3376 27.6172C17.6065 27.6548 17.873 27.5345 18.0259 27.3102L28.7062 11.6378C28.859 11.4135 28.8736 11.1214 28.7402 10.885Z" fill="#4CA66C"/>
<path d="M20.0751 18.4894C22.1877 18.4894 23.9002 16.7768 23.9002 14.6642C23.9002 12.5517 22.1877 10.8391 20.0751 10.8391C17.9626 10.8391 16.25 12.5517 16.25 14.6642C16.25 16.7768 17.9626 18.4894 20.0751 18.4894Z" fill="#74D798"/>
<path d="M31.8159 36.5365H2.34753C1.3428 36.5365 0.52832 35.722 0.52832 34.7173V16.7137C0.52832 15.709 1.3428 14.8945 2.34753 14.8945H31.8159C32.8206 14.8945 33.6351 15.709 33.6351 16.7137V34.7173C33.6352 35.7219 32.8206 36.5365 31.8159 36.5365Z" fill="#FFB125"/>
<path d="M31.8165 14.8945H28.5068C29.5116 14.8945 30.326 15.709 30.326 16.7138V34.7173C30.326 35.7221 29.5116 36.5366 28.5068 36.5366H31.8165C32.8212 36.5366 33.6357 35.7221 33.6357 34.7173V16.7138C33.6357 15.709 32.8212 14.8945 31.8165 14.8945Z" fill="#FF901D"/>
<path d="M34.7175 22.238H28.0849C26.1644 22.238 24.6074 23.795 24.6074 25.7155C24.6074 27.6361 26.1644 29.193 28.0849 29.193H34.7175C35.0815 29.193 35.3766 28.8979 35.3766 28.5339V22.8971C35.3766 22.5332 35.0815 22.238 34.7175 22.238Z" fill="#FF6D3A"/>
<path d="M34.7174 22.238H31.3961C31.7601 22.238 32.0552 22.5332 32.0552 22.8972V27.6451C32.0552 28.0334 31.7404 28.3481 31.3523 28.3481H28.0849C26.3075 28.3481 24.8425 27.0142 24.6338 25.2931C24.6171 25.4316 24.6074 25.5724 24.6074 25.7155C24.6074 27.6361 26.1644 29.1931 28.085 29.1931H31.3961H34.7175C35.0815 29.1931 35.3766 28.898 35.3766 28.534V27.6889V22.8972C35.3766 22.5332 35.0815 22.238 34.7174 22.238Z" fill="#ED5729"/>
<path d="M31.8159 14.8945H2.34753C1.3428 14.8945 0.52832 15.709 0.52832 16.7137V18.7073H33.6352V16.7137C33.6352 15.709 32.8206 14.8945 31.8159 14.8945Z" fill="#FF6D3A"/>
<path d="M33.325 15.6965C33.2596 15.5997 33.1851 15.5095 33.1028 15.4272C33.1018 15.4263 33.1008 15.4254 33.0998 15.4244C33.0183 15.3433 32.9292 15.2697 32.8335 15.2051C32.8093 15.1887 32.7847 15.1729 32.7596 15.1577C32.7224 15.1351 32.6841 15.1143 32.6452 15.0943C32.62 15.0813 32.5944 15.069 32.5686 15.0572C32.3393 14.9529 32.0847 14.8943 31.8163 14.8943H28.5068C29.5115 14.8944 30.3259 15.7088 30.3259 16.7136V18.7072H33.6355V16.7136C33.6355 16.3997 33.556 16.1042 33.416 15.8465C33.3881 15.7949 33.3576 15.7448 33.325 15.6965Z" fill="#ED5729"/>
<path d="M2.3476 36.5364H31.816C32.8207 36.5364 33.6352 35.722 33.6352 34.7172V32.7236H0.52832V34.7172C0.52832 35.7219 1.34288 36.5364 2.3476 36.5364Z" fill="#FF6D3A"/>
<path d="M30.3256 32.7236V34.7172C30.3256 34.7182 30.3256 34.7193 30.3256 34.7203C30.3253 34.8883 30.1846 35.0225 30.0167 35.0225H2.34753C1.3428 35.0225 0.52832 34.208 0.52832 33.2033V34.7173C0.52832 35.722 1.3428 36.5365 2.34753 36.5365H28.5064H31.816C31.8519 36.5365 31.8875 36.5352 31.9229 36.5331C31.934 36.5325 31.9449 36.5315 31.9559 36.5306C31.9806 36.5287 32.0051 36.5265 32.0295 36.5236C32.0416 36.5222 32.0537 36.5206 32.0658 36.5189C32.0901 36.5156 32.1141 36.5117 32.1381 36.5074C32.1487 36.5055 32.1593 36.5038 32.1699 36.5017C32.2038 36.495 32.2374 36.4877 32.2705 36.4792C32.2705 36.4792 32.2705 36.4792 32.2706 36.4792C32.2852 36.4754 32.2994 36.471 32.3138 36.467C32.3857 36.4465 32.4561 36.4223 32.5241 36.3935C32.5513 36.382 32.5781 36.3699 32.6046 36.3571C32.6311 36.3444 32.6573 36.3309 32.6831 36.317L32.6832 36.3169C32.7346 36.2889 32.7847 36.2585 32.833 36.2259L32.8331 36.2258L32.8332 36.2257C32.8744 36.1979 32.914 36.1681 32.9527 36.1371C32.9545 36.1357 32.9564 36.1342 32.9582 36.1328C32.9974 36.1012 33.0351 36.0678 33.0715 36.033C33.1143 35.9921 33.1552 35.9492 33.1939 35.9043V35.9042C33.2544 35.834 33.3097 35.7593 33.3591 35.6804C33.3605 35.6783 33.3618 35.6762 33.3632 35.674C33.3813 35.6447 33.3989 35.615 33.4154 35.5846C33.4154 35.5846 33.4155 35.5845 33.4156 35.5844V35.5843C33.4595 35.5033 33.4973 35.4186 33.5288 35.3308C33.5324 35.3208 33.5356 35.3106 33.5391 35.3005C33.5467 35.2781 33.5539 35.2555 33.5606 35.2326C33.564 35.221 33.5674 35.2094 33.5706 35.1977C33.5768 35.1748 33.5826 35.1516 33.5879 35.1283C33.5904 35.1177 33.5931 35.1071 33.5953 35.0964C33.6024 35.0628 33.6088 35.0291 33.6141 34.9949C33.6141 34.9946 33.6142 34.9945 33.6142 34.9943C33.6142 34.9942 33.6142 34.9941 33.6142 34.994C33.6203 34.954 33.6246 34.9135 33.628 34.8727C33.6289 34.8624 33.6297 34.8521 33.6304 34.8418C33.6332 34.8006 33.6351 34.7592 33.6351 34.7173V33.2034V32.7237H30.3256V32.7236Z" fill="#ED5729"/>
<path d="M28.2084 27.3303C29.1001 27.3303 29.823 26.6074 29.823 25.7157C29.823 24.824 29.1001 24.1011 28.2084 24.1011C27.3166 24.1011 26.5938 24.824 26.5938 25.7157C26.5938 26.6074 27.3166 27.3303 28.2084 27.3303Z" fill="#F2F2F2"/>
<path d="M34.7179 21.7099H34.1632V18.7074V16.7138C34.1632 15.9229 33.7696 15.2226 33.1683 14.797V14.1168C33.1683 13.13 32.3656 12.3273 31.3788 12.3273H30.9647L32.5492 10.002C33.0804 9.22265 32.8784 8.15639 32.099 7.62517L21.3466 0.297585C20.9691 0.0402315 20.514 -0.0547468 20.0649 0.0304586C19.616 0.115519 19.227 0.370267 18.9697 0.747863L9.68902 14.3665H7.10643L7.72951 8.05895C7.73653 7.98786 7.78272 7.92625 7.84715 7.902C8.6499 7.59933 9.34559 7.03409 9.806 6.31046C9.84227 6.25349 9.91068 6.22091 9.98148 6.22808L14.0322 6.62826C14.3226 6.65642 14.581 6.4449 14.6096 6.1546C14.6383 5.86431 14.4263 5.6058 14.136 5.57713L10.0853 5.17695C9.6151 5.13091 9.16671 5.34758 8.91478 5.74342C8.57628 6.2755 8.06476 6.69103 7.47455 6.91356C7.03028 7.08108 6.72522 7.4801 6.67831 7.95506L6.04502 14.3664H5.37156L6.35696 4.39048C6.39243 4.03142 6.71291 3.76762 7.07241 3.8036L15.2581 4.61222C15.5484 4.64024 15.8069 4.42885 15.8355 4.13856C15.8642 3.84827 15.6522 3.58976 15.3619 3.56109L7.17622 2.75247C6.23773 2.65988 5.39849 3.34797 5.30575 4.2866L4.51147 12.3272H3.15882C2.17212 12.3272 1.36929 13.1299 1.36929 14.1167V14.5807C0.562051 14.9524 0 15.7684 0 16.7138V18.7074V32.7236V34.7172C0 36.0116 1.05301 37.0646 2.34746 37.0646H31.8158C33.1102 37.0646 34.1632 36.0116 34.1632 34.7172V32.7236V29.7212H34.7179C35.3726 29.7212 35.9052 29.1886 35.9052 28.534V22.8972C35.9053 22.2425 35.3726 21.7099 34.7179 21.7099ZM31.3788 13.3834C31.7832 13.3834 32.1121 13.7124 32.1121 14.1168V14.3859C32.0149 14.3736 31.9163 14.3665 31.8158 14.3665H29.5749L30.2448 13.3835H31.3788V13.3834ZM19.8426 1.34264C19.941 1.19821 20.0898 1.10077 20.2615 1.0682C20.3026 1.06045 20.3437 1.05654 20.3846 1.05654C20.5147 1.05654 20.6418 1.09549 20.7517 1.17034L31.5042 8.49786C31.8023 8.70106 31.8796 9.10892 31.6765 9.40703L28.2968 14.3663H27.4857L29.1427 11.9349C29.4114 11.5406 29.4336 11.0387 29.2003 10.6252C28.8903 10.0757 28.7647 9.42875 28.8465 8.80335C28.9073 8.33809 28.7026 7.8839 28.3122 7.61794L22.7382 3.81938C22.3478 3.55334 21.8501 3.52895 21.4394 3.75575C20.8874 4.06052 20.2393 4.18018 19.6145 4.09273C19.1512 4.02773 18.6813 4.23694 18.4166 4.62532L11.7783 14.3664H10.9672L19.8426 1.34264ZM20.0752 10.3114C17.7752 10.3114 15.8872 12.1047 15.7334 14.3664H13.0564L19.2893 5.22017C19.2894 5.22017 19.2894 5.22017 19.2894 5.22017C19.3248 5.16812 19.3835 5.13713 19.4438 5.13713C19.4518 5.13713 19.4598 5.13771 19.4679 5.1388C20.3176 5.25767 21.199 5.09507 21.9498 4.68049C22.0089 4.64776 22.0848 4.65247 22.1433 4.69229L27.7174 8.49091C27.7757 8.53073 27.8078 8.59964 27.7991 8.66653C27.6878 9.51707 27.8588 10.3969 28.2804 11.1441C28.3142 11.2042 28.31 11.281 28.2699 11.34L26.2076 14.3663H24.4172C24.2632 12.1047 22.3753 10.3114 20.0752 10.3114ZM23.358 14.3665H16.7924C16.9437 12.6878 18.3578 11.3677 20.0752 11.3677C21.7926 11.3676 23.2068 12.6878 23.358 14.3665ZM2.42557 14.1167C2.42557 13.7123 2.75444 13.3834 3.15882 13.3834H4.40715L4.31007 14.3664H2.42557V14.1167ZM1.05627 16.7138C1.05627 16.0019 1.63548 15.4227 2.34746 15.4227H31.8158C32.5278 15.4227 33.107 16.0019 33.107 16.7138V18.1793H1.05627V16.7138ZM33.107 32.1956H7.28604C6.9943 32.1956 6.75794 32.432 6.75794 32.7237C6.75794 33.0154 6.99437 33.2518 7.28604 33.2518H33.107V34.7173C33.107 35.4292 32.5278 36.0084 31.8158 36.0084H2.34746C1.63548 36.0084 1.05627 35.4292 1.05627 34.7173V33.2518H3.90432C4.19606 33.2518 4.43242 33.0154 4.43242 32.7237C4.43242 32.432 4.19598 32.1956 3.90432 32.1956H1.05627V19.2355H33.107V21.7099H28.0854H28.0853C26.5031 21.7099 25.1326 22.6322 24.4822 23.9672C24.48 23.9716 24.4775 23.976 24.4753 23.9805C24.4698 23.9918 24.465 24.0036 24.4597 24.0151C24.3822 24.1796 24.3149 24.35 24.2601 24.5257C24.2599 24.5262 24.2598 24.5267 24.2596 24.5272C24.1427 24.9028 24.0797 25.3019 24.0797 25.7156C24.0797 27.9243 25.8766 29.7212 28.0853 29.7212H28.0853H33.1069V32.1956H33.107ZM34.849 28.5339C34.849 28.6062 34.7902 28.665 34.7179 28.665H33.6351H28.0854C26.9673 28.665 25.9925 28.0396 25.4925 27.1203C25.4697 27.0785 25.448 27.0361 25.4273 26.9931C25.3858 26.9072 25.3483 26.819 25.3153 26.7286C25.1993 26.4126 25.136 26.0713 25.136 25.7156C25.136 25.3598 25.1994 25.0186 25.3153 24.7025C25.3484 24.6122 25.3858 24.524 25.4273 24.438C25.448 24.3951 25.4697 24.3526 25.4925 24.3109C25.9925 23.3916 26.9673 22.7662 28.0854 22.7662H33.6351H34.7179C34.7901 22.7662 34.849 22.825 34.849 22.8972V28.5339Z" fill="black"/>
<path d="M28.2092 23.573C27.0276 23.573 26.0664 24.5343 26.0664 25.7158C26.0664 26.8973 27.0276 27.8585 28.2092 27.8585C29.3908 27.8585 30.352 26.8973 30.352 25.7158C30.352 24.5343 29.3908 23.573 28.2092 23.573ZM28.2092 26.8023C27.6101 26.8023 27.1227 26.3148 27.1227 25.7158C27.1227 25.1168 27.6101 24.6293 28.2092 24.6293C28.8083 24.6293 29.2957 25.1167 29.2957 25.7158C29.2957 26.3149 28.8083 26.8023 28.2092 26.8023Z" fill="black"/>
</svg>
