<?xml version="1.0" encoding="utf-8"?>
<!-- Generator: Adobe Illustrator 17.0.0, SVG Export Plug-In . SVG Version: 6.00 Build 0)  -->
<!DOCTYPE svg PUBLIC "-//W3C//DTD SVG 1.1//EN" "http://www.w3.org/Graphics/SVG/1.1/DTD/svg11.dtd">
<svg version="1.1" id="Layer_1" xmlns="http://www.w3.org/2000/svg" xmlns:xlink="http://www.w3.org/1999/xlink" x="0px" y="0px"
	 width="582px" height="68px" viewBox="0 0 582 68" enable-background="new 0 0 582 68" xml:space="preserve">
<g>
	<g>
		<path d="M145.043,48.162c0,11.489-8.732,18.015-31.342,18.015H83.646v-0.184c5.79-2.573,7.445-4.78,7.445-8.548V10.571
			c0-3.768-1.654-5.975-7.445-8.548V1.839h35.11c14.338,0,21.507,4.228,21.507,13.327c0,8.915-8.732,15.073-20.037,16.36
			C137.047,32.446,145.043,38.603,145.043,48.162z M105.705,3.401v27.941h3.952c10.846,0,14.798-6.618,14.798-14.706
			c0-7.996-4.044-13.235-14.431-13.235H105.705z M111.036,64.615c14.062,0,17.831-7.904,17.831-16.636
			c0-8.64-3.86-15.074-16.176-15.074h-6.986v31.709H111.036z"/>
		<path d="M146.81,34.008c0-21.875,14.43-33.272,34.191-33.272c19.669,0,34.099,11.397,34.099,33.272
			c0,21.876-14.43,33.272-34.099,33.272C161.24,67.28,146.81,55.883,146.81,34.008z M199.107,34.008
			c0-20.864-6.985-31.618-18.107-31.618c-11.213,0-18.107,10.754-18.107,31.618c0,20.865,6.894,31.618,18.107,31.618
			C192.122,65.625,199.107,54.872,199.107,34.008z"/>
		<path d="M272.051,40.717l-3.768,25.46h-52.757v-0.184c5.79-2.573,7.445-4.78,7.445-8.548V10.571c0-3.768-1.654-5.975-7.445-8.548
			V1.839h29.504v0.184c-5.791,2.573-7.445,4.78-7.445,8.548v54.044h4.872c13.052,0,23.621-8.639,29.412-23.989L272.051,40.717z"/>
	</g>
	<g>
		<g>
			<g>
				<rect x="4.587" y="0.92" fill="#C4161C" width="66.083" height="66.084"/>
				<path fill="#B11116" d="M57.565,43.883h-4.878v4.882h4.878V43.883z M47.254,33.073c0-2.026-1.64-3.664-3.66-3.664
					c-2.025,0-3.668,1.639-3.668,3.664c0,2.018,1.643,3.662,3.668,3.662C45.614,36.735,47.254,35.091,47.254,33.073 M63.535,23.409
					v7.688c0,4.303-2.566,11.018-10.413,11.018h-2.777c-2.014,3.872-6.477,7.714-12.932,7.714v-5.355
					c2.584,0,5.139-1.147,6.513-2.695c-0.152,0.009-0.231,0.028-0.391,0.028c-4.796,0-8.696-3.891-8.696-8.685
					c0-4.796,3.9-8.676,8.696-8.676c4.797,0,8.693,3.94,8.693,8.733c0,0.161-0.02,0.551-0.02,0.551h0.02
					c0,0.645-0.082,1.934-0.26,2.579h1.155c2.292,0,3.874-0.734,4.745-2.462c0.679-1.359,0.832-2.733,0.832-2.75v-7.688H63.535z
					 M26.511,19.274h5.809v19.902c0,4.3-3.062,10.906-10.916,10.906c-7.849,0-10.906-6.304-10.906-10.495h5.349
					c0.021,1.29,0.527,5.147,5.415,5.147c2.295,0,3.686-0.943,4.548-2.674c0.674-1.353,0.701-2.866,0.701-2.884V19.274z"/>
				<path fill="#FFFFFF" d="M57.565,43.168h-4.878v4.882h4.878V43.168z M47.254,32.358c0-2.026-1.64-3.664-3.66-3.664
					c-2.025,0-3.668,1.638-3.668,3.664c0,2.018,1.643,3.662,3.668,3.662C45.614,36.02,47.254,34.377,47.254,32.358 M63.535,22.694
					v7.687c0,4.303-2.566,11.018-10.413,11.018h-2.777c-2.014,3.872-6.477,7.715-12.932,7.715v-5.356
					c2.584,0,5.139-1.146,6.513-2.695c-0.152,0.009-0.231,0.028-0.391,0.028c-4.796,0-8.696-3.891-8.696-8.684
					c0-4.797,3.9-8.677,8.696-8.677c4.797,0,8.693,3.94,8.693,8.733c0,0.162-0.02,0.552-0.02,0.552h0.02
					c0,0.644-0.082,1.933-0.26,2.579h1.155c2.292,0,3.874-0.734,4.745-2.462c0.679-1.359,0.832-2.734,0.832-2.751v-7.687H63.535z
					 M26.511,18.559h5.809V38.46c0,4.3-3.062,10.906-10.916,10.906c-7.849,0-10.906-6.303-10.906-10.495h5.349
					c0.021,1.29,0.527,5.147,5.415,5.147c2.295,0,3.686-0.943,4.548-2.674c0.674-1.354,0.701-2.866,0.701-2.884V18.559z"/>
			</g>
		</g>
	</g>
	<g>
		<path d="M328.568,1.839h21.323v0.184c-5.331,2.573-7.445,7.445-7.445,13.879v50.828l-48.07-56.894v42.463
			c0,6.71,3.401,10.57,12.133,13.696v0.184h-21.232v-0.184c5.239-2.573,7.445-7.445,7.445-13.879V10.662
			c0-3.953-1.654-6.066-7.445-8.64V1.839h21.415L340.7,42.372V15.809c0-6.801-3.493-10.662-12.132-13.787V1.839z"/>
		<path d="M410.49,40.35l-3.861,25.827h-54.596v-0.184c5.791-2.573,7.445-4.78,7.445-8.548V10.571c0-3.768-1.654-5.975-7.445-8.548
			V1.839h55.882v22.518h-0.275c-2.39-13.143-9.65-20.956-23.621-20.956h-9.927v28.86h5.239c8.732,0,12.041-5.79,14.155-16.544h0.185
			v34.927h-0.185c-2.022-10.846-5.331-16.82-14.155-16.82h-5.239v30.79h8.272c13.236,0,22.151-7.353,27.941-24.357L410.49,40.35z"/>
		<path d="M501.182,1.839h20.404v0.184c-4.136,2.298-6.893,6.894-9.56,14.614l-16.82,49.541h-13.419L466.254,8.824l-16.176,57.353
			h-13.419l-18.015-53.401c-1.746-5.239-3.493-8.18-8.179-10.754V1.839H443v0.184c-8.456,2.573-10.202,6.802-8.272,12.5
			l15.442,45.589l16.268-58.272h13.236l15.901,58.731l12.959-38.879c3.217-9.559,1.195-17.188-7.352-19.669V1.839z"/>
		<path d="M513.639,60.111l10.386-21.875l0.275,0.092c-3.401,17.647,4.32,27.114,19.393,27.114c10.019,0,17.831-3.768,17.831-11.857
			c0-7.261-6.341-9.927-19.577-13.511c-13.051-3.585-23.989-7.445-23.989-20.68c0-10.57,10.569-18.474,25.918-18.474
			c10.295,0,19.67,2.573,26.196,6.893l-10.387,19.945l-0.184-0.092c3.309-16.176-3.769-25.184-15.626-25.184
			c-9.007,0-14.705,3.493-14.705,10.294c0,7.629,6.71,10.294,19.118,13.695c14.062,3.952,24.357,7.629,24.357,20.221
			c0,12.316-12.317,20.312-28.953,20.312C529.907,67.004,520.624,64.247,513.639,60.111z"/>
	</g>
</g>
</svg>
