<?xml version="1.0" standalone="no"?>
<!DOCTYPE svg PUBLIC "-//W3C//DTD SVG 1.1//EN" "http://www.w3.org/Graphics/SVG/1.1/DTD/svg11.dtd">
<svg width="100%" height="100%" viewBox="0 0 2084 785" version="1.1" xmlns="http://www.w3.org/2000/svg" xmlns:xlink="http://www.w3.org/1999/xlink" xml:space="preserve" style="fill-rule:evenodd;clip-rule:evenodd;stroke-miterlimit:10;">
    <g transform="matrix(4.8606,-5.23766e-31,-6.1106e-31,4.8606,-414.833,-107.769)">
        <g id="Page 1">
            <g>
                <g id="Layer 1">
                    <path d="M365.953,166.519C368.18,166.519 368.739,164.063 368.739,162.267C368.739,160.409 367.984,158.36 365.777,158.36C363.521,158.36 362.649,160.236 362.649,162.21C362.649,164.41 363.424,166.519 365.953,166.519M362.649,170.999L361.487,170.999L361.487,159.772C361.507,159.017 361.433,158.242 361.394,157.586L362.59,157.586L362.649,159.017L362.689,159.057C363.365,157.919 364.719,157.301 366.013,157.301C368.891,157.301 369.994,159.891 369.994,162.401C369.994,164.837 368.891,167.578 366.071,167.578C364.66,167.578 363.482,166.944 362.689,165.781L362.649,165.781L362.649,170.999ZM357.428,157.586L358.59,157.586L358.59,165.105C358.59,165.861 358.648,166.632 358.687,167.289L357.486,167.289L357.428,165.861L357.389,165.819C356.712,167.019 355.613,167.578 354.358,167.578C351.185,167.578 350.935,164.777 350.935,163.656L350.935,157.586L352.094,157.586L352.094,163.852C352.094,165.533 353.063,166.519 354.648,166.519C356.56,166.519 357.428,164.915 357.428,163.175L357.428,157.586ZM344.013,158.36C341.674,158.36 340.748,160.645 340.748,162.439C340.748,164.236 341.674,166.519 344.013,166.519C346.351,166.519 347.278,164.236 347.278,162.439C347.278,160.645 346.351,158.36 344.013,158.36M348.534,162.439C348.534,164.989 347.107,167.578 344.013,167.578C340.92,167.578 339.487,164.989 339.487,162.439C339.487,159.891 340.92,157.301 344.013,157.301C347.107,157.301 348.534,159.891 348.534,162.439M334.908,167.289L333.752,167.289L333.752,159.772C333.77,159.017 333.692,158.242 333.653,157.586L334.849,157.586L334.908,159.017L334.947,159.017C335.295,158.033 336.164,157.341 337.13,157.301C337.516,157.282 337.904,157.301 338.291,157.32L338.291,158.438C338.06,158.42 337.806,158.36 337.576,158.36C335.855,158.36 334.947,159.6 334.908,161.455L334.908,167.289ZM330.441,160.18L330.441,166.71C328.76,167.37 327.23,167.578 325.435,167.578C321.626,167.578 319.483,164.606 319.483,160.313C319.483,156.718 321.396,153.047 325.435,153.047C327.754,153.047 330.133,154.302 330.344,156.777L328.917,156.777C328.662,154.998 327.098,154.206 325.435,154.206C322.092,154.206 320.836,157.414 320.836,160.313C320.836,163.872 322.322,166.42 326.093,166.42C327.137,166.42 328.196,166.129 329.182,165.842L329.182,161.338L325.685,161.338L325.685,160.18L330.441,160.18ZM308.81,158.654L306.879,158.654L306.879,157.586L308.81,157.586L308.81,155.522L309.972,155.016L309.972,157.586L312.174,157.586L312.174,158.654L309.972,158.654L309.972,165.144C309.952,166.033 310.414,166.519 311.306,166.519C311.654,166.519 312.002,166.498 312.31,166.403L312.31,167.408C311.943,167.504 311.515,167.578 311.129,167.578C308.678,167.578 308.81,166.014 308.81,164.7L308.81,158.654ZM300.901,166.519C303.435,166.519 303.917,164.431 303.804,162.401C302.161,162.456 298.72,162.15 298.72,164.584C298.72,165.901 299.724,166.519 300.901,166.519M303.804,160.449C303.685,158.866 302.873,158.36 301.504,158.36C300.283,158.36 299.278,158.728 299.127,160.041L297.89,160.041C298.18,158.054 299.666,157.301 301.524,157.301C303.667,157.301 305,158.282 304.966,160.508L304.966,165.105C304.941,165.861 305.019,166.632 305.058,167.289L303.863,167.289L303.824,165.861L303.785,165.861L303.724,165.995C303.299,166.808 302.004,167.578 300.69,167.578C298.896,167.578 297.465,166.48 297.465,164.584C297.465,163.272 298.259,162.267 299.416,161.783C300.711,161.224 302.392,161.414 303.804,161.338L303.804,160.449ZM288.727,159.057L288.766,159.057C289.437,157.86 290.541,157.301 291.797,157.301C294.969,157.301 295.219,160.102 295.219,161.224L295.219,167.289L294.057,167.289L294.057,161.027C294.057,159.346 293.096,158.36 291.508,158.36C289.596,158.36 288.727,159.968 288.727,161.709L288.727,167.289L287.565,167.289L287.565,153.337L288.727,153.337L288.727,159.057ZM281.127,157.301C282.961,157.301 284.511,157.938 284.662,159.984L283.408,159.984C283.29,158.767 282.211,158.36 281.01,158.36C279.932,158.36 278.828,158.788 278.828,159.93C278.828,161.355 280.701,161.224 283.329,162.15C284.334,162.496 284.976,163.367 284.976,164.41C284.976,166.593 282.941,167.578 280.892,167.578C279.216,167.578 277.279,166.789 277.244,164.646L278.5,164.646C278.593,166.09 279.873,166.519 281.186,166.519C282.422,166.519 283.717,165.936 283.717,164.584C283.717,163.194 282.191,162.959 280.642,162.614C279.117,162.248 277.573,161.801 277.573,160.003C277.573,157.998 279.427,157.301 281.127,157.301M274.788,167.289L273.627,167.289L273.627,157.586L274.788,157.586L274.788,167.289ZM274.881,154.787L273.533,154.787L273.533,153.337L274.881,153.337L274.881,154.787ZM259.884,153.337L261.314,153.337L269.003,165.606L269.042,165.606L269.042,153.337L270.302,153.337L270.302,167.289L268.713,167.289L261.178,155.23L261.139,155.23L261.139,167.289L259.884,167.289L259.884,153.337ZM244.63,157.586L247.895,165.706L251.14,157.586L252.396,157.586L247.047,170.999L245.772,170.999L247.238,167.289L243.218,157.586L244.63,157.586ZM235.217,162.248C235.217,164.45 235.986,166.519 238.515,166.519C240.742,166.519 241.301,164.102 241.301,162.305C241.301,160.449 240.551,158.36 238.345,158.36C236.084,158.36 235.217,160.275 235.217,162.248M235.157,167.289L233.961,167.289C233.996,166.632 234.055,165.861 234.055,165.105L234.055,153.337L235.217,153.337L235.217,159.017L235.256,159.057C235.928,157.919 237.281,157.301 238.574,157.301C241.457,157.301 242.56,159.891 242.56,162.401C242.56,164.837 241.457,167.578 238.634,167.578C237.226,167.578 236.045,166.944 235.256,165.781L235.217,165.861L235.157,167.289Z" style="fill:rgb(35,31,32);fill-rule:nonzero;"/>
                    <path d="M327.539,142.487L327.539,109.336L322.705,109.336L322.705,108.088L334.168,108.088L345.037,135.807L356.207,108.088L367.176,108.088L367.176,109.336L362.336,109.336L362.336,142.487L367.176,142.487L367.176,143.735L351.373,143.735L351.373,142.487L356.952,142.487L356.952,110.184L356.853,110.184L343.194,144.333L342.443,144.333L329.138,110.184L329.034,110.184L329.034,142.487L334.418,142.487L334.418,143.735L322.705,143.735L322.705,142.487L327.539,142.487ZM286.31,133.664L286.31,109.336L281.721,109.336L281.721,108.088L296.93,108.088L296.93,109.336L291.992,109.336L291.992,133.017C291.992,134.743 292.109,136.15 292.341,137.231C292.576,138.312 293.021,139.27 293.689,140.121C294.351,140.97 295.317,141.575 296.577,141.94C297.842,142.308 299.471,142.487 301.465,142.487C303.76,142.487 305.617,142.274 307.049,141.84C308.477,141.411 309.525,140.715 310.187,139.746C310.854,138.78 311.295,137.778 311.512,136.729C311.726,135.682 311.835,134.311 311.835,132.62L311.835,109.336L306.451,109.336L306.451,108.088L317.518,108.088L317.518,109.336L313.33,109.336L313.33,133.164C313.33,135.059 313.174,136.603 312.859,137.802C312.541,139.001 311.934,140.102 311.036,141.116C310.139,142.131 308.775,142.872 306.951,143.338C305.123,143.803 302.779,144.031 299.921,144.031C296.959,144.031 294.562,143.818 292.719,143.387C290.87,142.955 289.492,142.259 288.575,141.293C287.664,140.327 287.055,139.28 286.761,138.153C286.463,137.023 286.31,135.525 286.31,133.664M267.365,142.487L267.365,109.336L262.678,109.336L262.678,108.088L277.734,108.088L277.734,109.336L273.048,109.336L273.048,142.487L277.734,142.487L277.734,143.735L262.678,143.735L262.678,142.487L267.365,142.487ZM239.747,109.336L239.747,124.192L243.232,124.192C247.155,124.192 249.116,121.701 249.116,116.715C249.116,114.288 248.597,112.451 247.547,111.204C246.498,109.958 244.763,109.336 242.336,109.336L239.747,109.336ZM234.06,142.487L234.06,109.336L229.372,109.336L229.372,108.088L243.982,108.088C247.538,108.088 250.228,108.681 252.059,109.856C253.887,111.037 254.799,113.307 254.799,116.66C254.799,119.355 254.059,121.294 252.583,122.47C251.101,123.652 248.998,124.407 246.277,124.741L246.277,124.841C248.337,125.071 249.906,125.339 250.984,125.638C252.067,125.937 253.049,126.427 253.932,127.109C254.809,127.791 255.416,128.713 255.75,129.874C256.078,131.038 256.299,132.62 256.396,134.61C256.529,137.537 256.818,139.582 257.269,140.744C257.716,141.906 258.657,142.487 260.084,142.487L261.334,142.487L261.334,143.735L257.691,143.735C256.461,143.735 255.455,143.617 254.676,143.387C253.896,143.152 253.255,142.855 252.754,142.487C252.26,142.122 251.877,141.509 251.612,140.643C251.348,139.779 251.151,138.924 251.038,138.077C250.92,137.231 250.812,135.993 250.709,134.365C250.514,130.973 249.921,128.691 248.944,127.506C247.959,126.327 245.943,125.736 242.885,125.736L239.747,125.736L239.747,142.487L244.232,142.487L244.232,143.735L229.372,143.735L229.372,142.487L234.06,142.487ZM221.601,125.937C221.601,123.976 221.542,122.265 221.424,120.801C221.307,119.338 221.042,117.828 220.625,116.266C220.209,114.704 219.66,113.43 218.982,112.451C218.297,111.469 217.346,110.657 216.114,110.009C214.884,109.361 213.437,109.037 211.775,109.037C210.113,109.037 208.667,109.361 207.441,110.009C206.211,110.657 205.254,111.469 204.572,112.451C203.892,113.43 203.342,114.704 202.926,116.266C202.51,117.828 202.244,119.338 202.131,120.801C202.014,122.265 201.955,123.976 201.955,125.937C201.955,128.427 202.072,130.556 202.303,132.321C202.533,134.081 202.969,135.817 203.598,137.53C204.23,139.239 205.24,140.545 206.617,141.44C207.995,142.34 209.717,142.788 211.775,142.788C213.84,142.788 215.556,142.34 216.937,141.44C218.316,140.545 219.32,139.239 219.953,137.53C220.582,135.817 221.018,134.081 221.248,132.321C221.478,130.556 221.601,128.427 221.601,125.937M196.346,132.566C195.699,130.443 195.375,128.229 195.375,125.937C195.375,123.643 195.699,121.431 196.346,119.306C196.993,117.18 197.959,115.219 199.238,113.425C200.518,111.626 202.234,110.191 204.396,109.112C206.559,108.031 209.016,107.492 211.775,107.492C214.535,107.492 216.992,108.031 219.154,109.112C221.316,110.191 223.033,111.626 224.312,113.425C225.592,115.219 226.558,117.18 227.205,119.306C227.852,121.431 228.181,123.643 228.181,125.937C228.181,128.229 227.852,130.443 227.205,132.566C226.558,134.694 225.592,136.648 224.312,138.425C223.033,140.204 221.316,141.634 219.154,142.71C216.992,143.794 214.535,144.333 211.775,144.333C209.016,144.333 206.559,143.794 204.396,142.71C202.234,141.634 200.518,140.204 199.238,138.425C197.959,136.648 196.993,134.694 196.346,132.566M176.876,109.336L176.876,126.285L180.818,126.285C183.574,126.285 185.353,125.628 186.152,124.317C186.947,123.003 187.349,120.755 187.349,117.563C187.349,114.969 186.883,112.946 185.951,111.503C185.019,110.059 183.426,109.336 181.166,109.336L176.876,109.336ZM171.193,142.487L171.193,109.336L166.509,109.336L166.509,108.088L182.961,108.088C189.874,108.088 193.33,111.395 193.33,118.009C193.33,121.267 192.458,123.718 190.712,125.363C188.967,127.011 186.717,127.832 183.955,127.832L176.876,127.832L176.876,142.487L181.361,142.487L181.361,143.735L166.509,143.735L166.509,142.487L171.193,142.487ZM121.893,142.487L121.893,109.336L117.053,109.336L117.053,108.088L128.52,108.088L139.391,135.807L150.557,108.088L161.522,108.088L161.522,109.336L156.691,109.336L156.691,142.487L161.522,142.487L161.522,143.735L145.721,143.735L145.721,142.487L151.305,142.487L151.305,110.184L151.207,110.184L137.545,144.333L136.797,144.333L123.485,110.184L123.388,110.184L123.388,142.487L128.771,142.487L128.771,143.735L117.053,143.735L117.053,142.487L121.893,142.487ZM90.032,142.487L90.032,109.336L85.346,109.336L85.346,108.088L113.863,108.088L114.162,119.058L112.865,119.058C112.67,117.891 112.469,116.905 112.269,116.087C112.066,115.273 111.811,114.518 111.495,113.821C111.179,113.126 110.855,112.552 110.521,112.104C110.191,111.655 109.732,111.248 109.154,110.88C108.57,110.512 107.98,110.242 107.385,110.059C106.783,109.875 105.986,109.728 104.988,109.611C103.991,109.493 102.977,109.419 101.949,109.384C100.918,109.35 99.638,109.336 98.107,109.336L95.717,109.336L95.717,124.79L98.409,124.79C101.133,124.79 102.844,124.275 103.545,123.245C104.241,122.214 104.574,120.22 104.541,117.264L106.035,117.264L106.035,134.214L104.541,134.214C104.541,133.017 104.525,132.095 104.491,131.448C104.457,130.796 104.369,130.127 104.217,129.426C104.067,128.727 103.869,128.221 103.619,127.908C103.369,127.59 103.011,127.29 102.545,127.011C102.082,126.727 101.525,126.545 100.878,126.462C100.228,126.378 99.406,126.334 98.409,126.334L95.717,126.334L95.717,142.487L103.246,142.487C106.867,142.487 109.492,141.607 111.123,139.847C112.75,138.087 113.846,135.311 114.412,131.519L115.758,131.519L115.31,143.735L85.346,143.735L85.346,142.487L90.032,142.487Z" style="fill:rgb(35,31,32);fill-rule:nonzero;"/>
                    <path d="M450.143,161.586C439.414,162.184 428.021,161.743 419.416,154.503C410.327,146.853 405.222,134.625 400.094,124.226C387.155,98.002 379.325,67.145 358.668,45.545C356.987,43.785 353.344,43.966 352.26,46.369C348.686,54.285 346.749,62.262 345.975,70.894C345.725,73.681 345.553,76.459 345.372,79.223C342.106,67.816 338.9,56.466 333.134,45.805C331.61,42.986 327.692,43.336 326.088,45.805C325.176,47.207 324.534,48.626 324.079,50.065C323.5,45.307 320.254,40.529 317.94,36.762C315.538,32.856 309.203,35.381 310.483,39.904C311.801,44.543 313.688,48.958 315.64,53.348C315.502,54.709 316.106,55.787 317.038,56.496C319.347,61.71 321.573,66.959 322.838,72.56C323.676,76.306 330.123,76.63 330.707,72.56C331.26,68.657 330.727,64.27 330.747,60.051C335.806,72.894 338.439,86.456 343.155,99.554C344.435,103.104 350.059,103.775 351.025,99.554C354.32,85.173 352.785,70.202 357.153,56.19C365.758,66.902 371.613,79.788 377.104,92.268C383.434,106.668 389.352,121.166 396.471,135.208C401.666,145.455 407.404,155.749 416.768,162.733C426.197,169.764 438.866,170.372 450.143,169.745C455.37,169.456 455.399,161.292 450.143,161.586M502.217,128.998C502.571,129.29 503.094,130.751 503.383,131.335C504.143,133.205 504.143,134.605 505.081,136.645C505.545,137.637 508.346,147.154 508.522,148.439C508.989,151.3 510.743,155.502 511.557,158.945C512.145,161.517 514.946,168.229 513.602,169.803C510.743,173.076 508.346,163.498 507.473,161.517C506.831,160.174 505.834,157.661 505.545,156.494C504.786,154.105 504.262,153.285 503.213,150.949C502.629,149.838 501.752,146.22 501.168,144.994C500.118,142.602 499.942,141.025 499.123,139.04C498.659,138.047 497.721,133.96 497.545,133.026C497.196,131.217 496.614,127.246 499.416,127.246C499.477,127.246 501.981,128.822 502.217,128.998M485.694,128.998C486.047,129.29 486.571,130.751 486.862,131.335C487.625,133.205 487.625,134.605 488.557,136.645C489.024,137.637 491.829,147.154 492,148.439C492.469,151.3 494.221,155.502 495.034,158.945C495.618,161.517 498.422,168.229 497.079,169.803C494.221,173.076 491.829,163.498 490.95,161.517C490.309,160.174 489.317,157.661 489.024,156.494C488.262,154.105 487.739,153.285 486.69,150.949C486.106,149.838 485.229,146.22 484.645,144.994C483.596,142.602 483.418,141.025 482.606,139.04C482.135,138.047 481.204,133.96 481.026,133.026C480.678,131.217 480.09,127.246 482.895,127.246C482.954,127.246 485.463,128.822 485.694,128.998M466.955,165.192L472.491,165.351L474.487,164.729C475.948,164.729 476.241,164.783 476.766,164.027C475.305,163.91 473.666,163.326 471.975,163.15L469.471,162.919C468.651,162.743 467.479,162.973 466.725,163.091C465.264,163.326 464.797,163.966 463.743,164.027C464.387,164.9 466.196,165.192 466.955,165.192M484.239,167.644C481.788,167.644 482.077,166.71 480.385,165.601C479.918,166.769 480.207,167.003 478.805,168.171C478.694,168.229 476.59,169.337 476.006,169.456C474.604,169.862 471.803,170.565 469.76,170.739C465.965,171.088 459.659,169.279 459.659,165.192C459.659,163.326 460.071,163.792 460.827,162.449C462.872,159.59 471.52,159.125 472.004,159.811C469.965,156.899 463.944,155.344 459.959,155.928C458.674,156.114 456.752,155.148 457.032,154.045C457.418,152.52 459.194,152.584 460.125,152.641L461.002,152.641C463.278,152.819 466.489,153.227 468.829,153.986C470.284,154.452 471.393,154.862 472.793,155.502C473.786,155.914 474.78,156.668 476.123,157.195C476.123,157.195 479.276,159.178 479.452,159.296C480.266,159.939 481.788,161.397 482.428,161.809C483.532,162.623 484.528,163.15 485.288,164.378C486.454,165.955 485.405,166.361 484.94,167.644L484.239,167.644Z" style="fill:rgb(36,170,225);fill-rule:nonzero;"/>
                    <path d="M85.463,148.896L369.488,148.896" style="fill:rgb(35,31,32);fill-rule:nonzero;stroke-width:0.31px;stroke:rgb(35,31,32);"/>
                </g>
            </g>
        </g>
    </g>
</svg>
